ffmpeg version 2.8.11-0ubuntu0.16.04.1 Copyright (c) 2000-2017 the FFmpeg developers
  built with gcc 5.4.0 (Ubuntu 5.4.0-6ubuntu1~16.04.4) 20160609
  configuration: --prefix=/usr --extra-version=0ubuntu0.16.04.1 --build-suffix=-ffmpeg --toolchain=hardened --libdir=/usr/lib/x86_64-linux-gnu --incdir=/usr/include/x86_64-linux-gnu --cc=cc --cxx=g++ --enable-gpl --enable-shared --disable-stripping --disable-decoder=libopenjpeg --disable-decoder=libschroedinger --enable-avresample --enable-avisynth --enable-gnutls --enable-ladspa --enable-libass --enable-libbluray --enable-libbs2b --enable-libcaca --enable-libcdio --enable-libflite --enable-libfontconfig --enable-libfreetype --enable-libfribidi --enable-libgme --enable-libgsm --enable-libmodplug --enable-libmp3lame --enable-libopenjpeg --enable-libopus --enable-libpulse --enable-librtmp --enable-libschroedinger --enable-libshine --enable-libsnappy --enable-libsoxr --enable-libspeex --enable-libssh --enable-libtheora --enable-libtwolame --enable-libvorbis --enable-libvpx --enable-libwavpack --enable-libwebp --enable-libx265 --enable-libxvid --enable-libzvbi --enable-openal --enable-opengl --enable-x11grab --enable-libdc1394 --enable-libiec61883 --enable-libzmq --enable-frei0r --enable-libx264 --enable-libopencv
  libavutil      54. 31.100 / 54. 31.100
  libavcodec     56. 60.100 / 56. 60.100
  libavformat    56. 40.101 / 56. 40.101
  libavdevice    56.  4.100 / 56.  4.100
  libavfilter     5. 40.101 /  5. 40.101
  libavresample   2.  1.  0 /  2.  1.  0
  libswscale      3.  1.101 /  3.  1.101
  libswresample   1.  2.101 /  1.  2.101
  libpostproc    53.  3.100 / 53.  3.100
[mp3 @ 0xc2e8c0] Unknown attached picture mimetype: ('image/png', None), skipping.
[mp3 @ 0xc2e8c0] Skipping 0 bytes of junk at 17522.
Input #0, mp3, from 'jan-andrzej-morsztyn-na-zegarek-ciekacy.mp3':
  Metadata:
    title           : Jan Andrzej Morsztyn, "Na zegarek ciekący"
    artist          : Piotr Głowacki
    album           : Wolne Lektury
    encoder         : Lavf53.21.0
    genre           : Speech
    originator_reference: U9mvkaWrLtjaaaGk
    date            : 2008-09-26
    performer       : Jakub Kowalski
    album_artist    : Fundacja Nowoczesna Polska
    time_reference  : 37072944
    copyright       : 2008 Fundacja Nowoczesna Polska. Licensed to the public under http://creativecommons.org/licenses/by-sa/3.0/deed.pl verify at http://wolnelektury.pl/katalog/lektura/na-zegarek-ciekacy/
    creation_time   : 0009-36-56
    encoded_by      : Pro Tools
    publisher       : Fundacja Nowoczesna Polska
  Duration: 00:00:31.66, start: 0.000000, bitrate: 68 kb/s
    Stream #0:0: Audio: mp3, 44100 Hz, mono, s16p, 64 kb/s
Output #0, null, to 'pipe:':
  Metadata:
    title           : Jan Andrzej Morsztyn, "Na zegarek ciekący"
    artist          : Piotr Głowacki
    album           : Wolne Lektury
    publisher       : Fundacja Nowoczesna Polska
    genre           : Speech
    originator_reference: U9mvkaWrLtjaaaGk
    date            : 2008-09-26
    performer       : Jakub Kowalski
    album_artist    : Fundacja Nowoczesna Polska
    time_reference  : 37072944
    copyright       : 2008 Fundacja Nowoczesna Polska. Licensed to the public under http://creativecommons.org/licenses/by-sa/3.0/deed.pl verify at http://wolnelektury.pl/katalog/lektura/na-zegarek-ciekacy/
    encoded_by      : Pro Tools
    encoder         : Lavf56.40.101
    Stream #0:0: Audio: pcm_s16le, 44100 Hz, mono, s16, 705 kb/s
    Metadata:
      encoder         : Lavc56.60.100 pcm_s16le
Stream mapping:
  Stream #0:0 -> #0:0 (mp3 (native) -> pcm_s16le (native))
Press [q] to stop, [?] for help
[silencedetect @ 0xc4c220] silence_start: -0.00367347
[silencedetect @ 0xc4c220] silence_end: 0.600816 | silence_duration: 0.60449
[silencedetect @ 0xc4c220] silence_start: 1.90327
[silencedetect @ 0xc4c220] silence_end: 3.10857 | silence_duration: 1.20531
[silencedetect @ 0xc4c220] silence_start: 4.3849
[silencedetect @ 0xc4c220] silence_end: 9.97878 | silence_duration: 5.59388
[silencedetect @ 0xc4c220] silence_start: 16.8976
[silencedetect @ 0xc4c220] silence_end: 17.6588 | silence_duration: 0.761224
[silencedetect @ 0xc4c220] silence_start: 21.2078
[silencedetect @ 0xc4c220] silence_end: 22.9094 | silence_duration: 1.70163
[silencedetect @ 0xc4c220] silence_start: 25.1261
[silencedetect @ 0xc4c220] silence_end: 26.0963 | silence_duration: 0.970204
[silencedetect @ 0xc4c220] silence_start: 26.9808
[silencedetect @ 0xc4c220] silence_end: 27.7682 | silence_duration: 0.787347
[silencedetect @ 0xc4c220] silence_start: 28.8094
size=N/A time=00:00:31.66 bitrate=N/A    
video:0kB audio:2727kB subtitle:0kB other streams:0kB global headers:0kB muxing overhead: unknown
